# xmcd
#
# Track frame offsets:
# 150
# 43172
# 57425
# 79518
# 107252
# 145400
# 172218
# 185794
# 221448
# 247868
#
# Disc length: 3703 seconds
#
#
# Revision: 0
# Processed by: cddbd v1.5.2PL0 Copyright (c) Steve Scherf et al.
# Submitted via: FreeRIP 2.941 
#
DISCID=8c0e750a
DTITLE=Various Artist - TRUE BLUE: 75 Years of Blue Note Records Disc 3/4
DYEAR=2014
DGENRE=Blues
TTITLE0=Art Blakey and The Jazz Messengers - Moanin'
TTITLE1=Ike Quebec - Loie
TTITLE2=Bobby McFerrin - Don't Worry Be Happy
TTITLE3=Jackie McLean - Torchin'
TTITLE4=Kenny Drew - Funk-Cosity
TTITLE5=Jimmy Smith - Messin' Around
TTITLE6=Milt Jackson - Don't get around much anymore
TTITLE7=Herbie Hancock /Maiden Voyage
TTITLE8=Grant Green - What is this thing called Love
TTITLE9=Thad Jones - April in Paris
EXTD=Disc 3 of 4
EXTT0=
EXTT1=
EXTT2=
EXTT3=
EXTT4=
EXTT5=
EXTT6=
EXTT7=
EXTT8=
EXTT9=
PLAYORDER=
